<svg width="14" height="15" viewBox="0 0 14 15" fill="none" xmlns="http://www.w3.org/2000/svg">
<path fill-rule="evenodd" clip-rule="evenodd" d="M0 7.5C0 3.63401 3.13401 0.5 7 0.5C10.866 0.5 14 3.63401 14 7.5C14 11.366 10.866 14.5 7 14.5C3.13401 14.5 0 11.366 0 7.5ZM7.63636 3.68182C7.63636 3.33036 7.35145 3.04545 7 3.04545C6.64855 3.04545 6.36364 3.33036 6.36364 3.68182V7.5C6.36364 7.74104 6.49982 7.96139 6.71541 8.06918L9.26086 9.34191C9.57521 9.49908 9.95746 9.37167 10.1146 9.05732C10.2718 8.74297 10.1444 8.36072 9.83004 8.20355L7.63636 7.10671V3.68182Z" fill="#666666"/>
</svg>
